1492: Conquest of Paradise *1992*[BluRay][720p][ENG, POL]

General information:
Country: France, Spain 
Release: 8 October 1992
Genre: Adventure, Biography, Drama, History 
Director: Ridley Scott 
Screenplay:  Roselyne Bosch 
Original Music: VANGELIS
Cinematography by: Adrian Biddle 
Duration: 2h 29mn
Language: English, Polish 
No Subtitles 
Rating: 7.7/10 - 2986 votes

Cast:
Gérard Depardieu  ...  Christopher Columbus  
Armand Assante  ...  Sanchez  
Sigourney Weaver  ...  Queen Isabella I.  
Loren Dean  ...  Older Fernando Columbus  
Ángela Molina  ...  Beatrix Enriquez  
Fernando Rey  ...  Antonio de Marchena  
Michael Wincott  ...  Adrian de Moxica  
Tchéky Karyo  ...  Martín Alonso Pinzón  
Kevin Dunn  ...  Captain Mendez  
Frank Langella  ...  Luis de Santángel  
Mark Margolis  ...  Francisco de Bobadilla  
Kario Salem  ...  Arojaz  
Billy L. Sullivan  ...  Young Fernando Columbus  
John Heffernan  ...  Brother Buyl  
Arnold Vosloo  ...  Guevara  

Plot:
Christopher Columbus' discovery of the Americas and the effect this has on the indigenous people. 

Specifications:
General
Format                           : Matroska
Overall bit rate                 : 6 379 Kbps

Video
Format                           : AVC
Format/Info                      : Advanced Video Codec
Format profile                   : High@L4.1
Format settings, CABAC           : Yes
Format settings, ReFrames        : 8 frames
Muxing mode                      : Container profile=Unknown@4.1
Codec ID                         : V_MPEG4/ISO/AVC
Bit rate                         : 4 750 Kbps
Width                            : 1 280 pixels
Height                           : 546 pixels
Display aspect ratio             : 2.35:1
Frame rate                       : 25.000 fps

Audio 1
Format                           : DTS
Format/Info                      : Digital Theater Systems
Codec ID                         : A_DTS
Bit rate mode                    : Constant
Bit rate                         : 1 510 Kbps
Channel(s)                       : 2 channels
Channel positions                : Front: L R
Sampling rate                    : 48.0 KHz
Bit depth                        : 24 bits
Stream size                      : 1.58 GiB (24%)
Title                            : English

Audio 2
Format                           : AC-3
Format/Info                      : Audio Coding 3
Mode extension                   : CM (complete main)
Codec ID                         : A_AC3
Bit rate mode                    : Constant
Bit rate                         : 128 Kbps
Channel(s)                       : 2 channels
Channel positions                : Front: L R
Sampling rate                    : 48.0 KHz
Stream size                      : 137 MiB (2%)
Title                            : Polish
Language                         : Polish
